<?xml version="1.0" standalone="no"?>
<!DOCTYPE svg PUBLIC "-//W3C//DTD SVG 20010904//EN"
 "http://www.w3.org/TR/2001/REC-SVG-20010904/DTD/svg10.dtd">
<svg version="1.0" xmlns="http://www.w3.org/2000/svg"
 width="512.000000pt" height="512.000000pt" viewBox="0 0 512.000000 512.000000"
 preserveAspectRatio="xMidYMid meet">
<metadata>
Created by potrace 1.11, written by Peter Selinger 2001-2013
</metadata>
<g transform="translate(0.000000,512.000000) scale(0.100000,-0.100000)"
fill="#000000" stroke="none">
<path d="M1341 4933 c-46 -175 -100 -408 -105 -455 -5 -48 -277 -1159 -922
-3767 -74 -299 -132 -547 -128 -550 3 -3 326 74 717 172 1636 408 3447 856
3522 872 122 26 517 124 544 136 l24 10 -7 132 c-48 924 -430 1769 -1098 2422
-199 196 -337 309 -553 452 -464 309 -975 503 -1516 578 -86 11 -370 33 -461
35 -4 0 -12 -17 -17 -37z"/>
</g>
</svg>
